<svg version="1.2" xmlns="http://www.w3.org/2000/svg" viewBox="0 0 105 50" width="105" height="50">
	<title>logo-svg</title>
	<defs>
		<clipPath clipPathUnits="userSpaceOnUse" id="cp1">
			<path d="m43.77 19.02q0-0.24 0.08-0.43 0.09-0.21 0.23-0.36 0.15-0.15 0.34-0.23 0.2-0.09 0.43-0.09 0.23 0 0.42 0.09 0.2 0.08 0.34 0.23 0.14 0.15 0.22 0.36 0.08 0.19 0.08 0.43v3.07q0.56-0.36 1.2-0.56 0.65-0.2 1.36-0.2 0.98 0 1.82 0.37 0.86 0.36 1.49 1 0.64 0.63 1.01 1.49 0.37 0.86 0.37 1.83 0 0.97-0.37 1.82-0.37 0.86-1.01 1.5-0.63 0.64-1.49 1.02-0.84 0.36-1.82 0.36-0.96 0-1.82-0.36-0.86-0.38-1.5-1.02-0.64-0.64-1.01-1.5-0.37-0.85-0.37-1.82zm2.14 7.01q0 0.52 0.2 0.99 0.21 0.46 0.55 0.82 0.35 0.34 0.82 0.55 0.46 0.2 0.99 0.2 0.53 0 1-0.2 0.46-0.21 0.8-0.55 0.36-0.36 0.56-0.82 0.19-0.47 0.19-0.99 0-0.54-0.19-1-0.2-0.47-0.56-0.82-0.34-0.34-0.8-0.54-0.47-0.21-1-0.21-0.53 0-0.99 0.21-0.47 0.2-0.82 0.54-0.34 0.35-0.55 0.82-0.2 0.46-0.2 1z"/>
		</clipPath>
	</defs>
	<style>
		tspan { white-space:pre } 
		.s0 { fill: #2b3445;stroke: #2b3445;stroke-width: 2 } 
		.s1 { fill: #2b3445 } 
		.t2 { font-size: 20px;fill: #ffffff;font-weight: 700;font-family: "Neuton-SC-Bold", "Neuton SC" } 
	</style>
	<path id="Layer" class="s0" d="m51.5 12h40c6.9 0 12.5 5.6 12.5 12.5 0 6.9-5.6 12.5-12.5 12.5h-40c-6.9 0-12.5-5.6-12.5-12.5 0-6.9 5.6-12.5 12.5-12.5z"/>
	<path id="Layer copy" class="s0" d="m13.5 12h40c6.9 0 12.5 5.6 12.5 12.5 0 6.9-5.6 12.5-12.5 12.5h-40c-6.9 0-12.5-5.6-12.5-12.5 0-6.9 5.6-12.5 12.5-12.5z"/>
	<path id="Layer" class="s1" d="m43.8 17.9h46.7v13.3h-46.7z"/>
	<g id="Clip-Path" clip-path="url(#cp1)">
		<g id="Layer">
		</g>
	</g>
	<text id="Rachma" style="transform: matrix(1,0,0,1,16,31)" >
		<tspan x="0" y="0" class="t2">R</tspan><tspan  y="0" class="t2">a</tspan><tspan  y="0" class="t2">c</tspan><tspan  y="0" class="t2">h</tspan><tspan  y="0" class="t2">m</tspan><tspan  y="0" class="t2">a
</tspan>
	</text>
</svg>